<?xml version="1.0" encoding="UTF-8"?>
<svg id="Layer_1" data-name="Layer 1" xmlns="http://www.w3.org/2000/svg" xmlns:xlink="http://www.w3.org/1999/xlink" viewBox="0 0 1064 377.0676">
  <defs>
    <linearGradient id="linear-gradient" x1="120.1794" y1="157.7528" x2="173.7102" y2="251.8729" gradientTransform="matrix(1, 0, 0, 1, 0, 0)" gradientUnits="userSpaceOnUse">
      <stop offset="0" stop-color="#00efc8"/>
      <stop offset="1" stop-color="#00b1ff"/>
    </linearGradient>
    <linearGradient id="linear-gradient-2" x1="164.9184" y1="265.4858" x2="193.1544" y2="142.5414" gradientTransform="matrix(1, 0, 0, 1, 0, 0)" gradientUnits="userSpaceOnUse">
      <stop offset="0" stop-color="#00b2ff"/>
      <stop offset="1" stop-color="#da02ee"/>
    </linearGradient>
    <linearGradient id="linear-gradient-3" x1="182.4859" y1="144.0818" x2="244.2523" y2="257.6142" gradientTransform="matrix(1, 0, 0, 1, 0, 0)" gradientUnits="userSpaceOnUse">
      <stop offset="0" stop-color="#d804f2"/>
      <stop offset="1" stop-color="#ff008c"/>
    </linearGradient>
    <linearGradient id="linear-gradient-4" x1="228.7697" y1="260.7538" x2="259.3661" y2="116.0089" gradientTransform="matrix(1, 0, 0, 1, 0, 0)" gradientUnits="userSpaceOnUse">
      <stop offset="0" stop-color="#ff008d"/>
      <stop offset="1" stop-color="#ffa000"/>
    </linearGradient>
  </defs>
  <g id="logoMark">
    <a xlink:href="adient">
      <path id="logoMark__PathItem_" data-name="logoMark &amp;lt;PathItem&amp;gt;" d="M155.5829,159.6777c-.0505-.0933-.1036-.1846-.1548-.2773l-.1697-.3051-.0117,.0065c-5.0782-8.9495-14.6749-14.9988-25.6993-14.9988-16.3184,0-29.5473,13.229-29.5473,29.548,0,5.0413,1.2691,9.7845,3.4956,13.937l-.0402,.022,42.2425,75.345,49.4442-32.272-39.5592-71.0053Z" style="fill: url(#linear-gradient);"/>
    </a>
    <a xlink:href="adient">
      <path id="logoMark__PathItem_-2" data-name="logoMark &amp;lt;PathItem&amp;gt;" d="M218.3571,156.3603l-58.0892-10.5762-18.2955,95.6817,.0032,.0013c-.4068,1.9538-.6251,3.9776-.6251,6.0531,0,16.3184,13.2283,29.5473,29.5473,29.5473,14.9333,0,27.2463-11.0892,29.2351-25.4758l.0136,.0019,18.2106-95.2334Z" style="fill: url(#linear-gradient-2);"/>
    </a>
    <a xlink:href="adient">
      <path id="logoMark__PathItem_-3" data-name="logoMark &amp;lt;PathItem&amp;gt;" d="M263.058,235.3298l-46.5135-94.9231-.0104,.0045c-4.4116-10.7679-14.9839-18.3596-27.3402-18.3596-16.319,0-29.548,13.229-29.548,29.548,0,6.4146,1.7915,10.1036,5.5388,17.1793l44.6051,92.1129,53.2682-25.562Z" style="fill: url(#linear-gradient-3);"/>
    </a>
    <a xlink:href="adient">
      <path id="logoMark__PathItem_-4" data-name="logoMark &amp;lt;PathItem&amp;gt;" d="M251.922,100c-14.8886,0-27.1706,11.0225-29.2149,25.3457l-.0318-.0026-15.8085,118.1524,.0273,.0026c-.18,1.3183-.305,2.6541-.305,4.0223,0,16.3184,13.2281,29.5473,29.5472,29.5473,15.4866,0,28.1675-11.9204,29.4228-27.0823l.0169,.0019c1.6875-12.6193,15.8932-118.8584,15.8932-118.8584,2.4433-17.9957-12.9079-31.1287-29.5472-31.1287Z" style="fill: url(#linear-gradient-4);"/>
    </a>
  </g>
  <g id="type">
    <a xlink:href="91.8733333333333">
      <path id="type__PathItem_" data-name="type &amp;lt;PathItem&amp;gt;" d="M459.9702,132.878h-3.585c-4.0636,0-6.873,.6881-8.4241,2.0616-1.5538,1.3735-2.6291,4.1538-3.2256,8.3353l-8.9624,75.6392c-.5993,4.4229-1.2861,7.3225-2.0616,8.6932-.7783,1.3763-2.1227,2.0616-4.0331,2.0616-1.9132,0-3.3158-.7159-4.212-2.1504s-1.644-4.3008-2.2406-8.6044l-8.2451-61.1218c-1.1959-9.5589-3.5267-16.0712-6.9909-19.5369-3.2256-3.585-8.8445-5.3774-16.8482-5.3774-7.8872,0-13.5643,1.7925-17.0285,5.3774-3.227,3.4656-5.4981,9.9779-6.812,19.5369l-8.2451,61.1218c-.5993,4.3036-1.3444,7.1699-2.2406,8.6044s-2.3016,2.1504-4.212,2.1504c-1.9132,0-3.2575-.6854-4.0331-2.0616-.7783-1.3707-1.4651-4.2703-2.0616-8.6932l-8.961-75.6392c-.5993-4.1815-1.6759-6.9618-3.227-8.3353-1.5538-1.3735-4.3633-2.0616-8.4241-2.0616h-3.585c-4.1843,0-6.873,.7159-8.0661,2.1504-1.1959,1.4345-1.5552,4.1843-1.0752,8.2465l9.6783,75.6392c1.5525,11.7121,4.4201,20.0169,8.6044,24.9143,4.1815,4.9029,11.2307,7.3503,21.1504,7.3503,9.6796,0,16.4292-2.4473,20.2541-7.3503,3.7029-4.7781,6.2737-13.0829,7.7082-24.9143l7.1699-58.9713c.3579-2.8663,.7173-4.6588,1.0752-5.3774,.3579-.7159,1.1349-1.0738,2.3308-1.0738,1.1917,0,1.9714,.3579,2.3294,1.0738,.3579,.7187,.7173,2.5111,1.0752,5.3774l7.1699,58.9713c1.4345,11.8315,4.0025,20.1362,7.7082,24.9143,3.8222,4.9029,10.5745,7.3503,20.2541,7.3503,9.9169,0,16.9661-2.4473,21.1504-7.3503,4.1815-4.8974,7.0492-13.2022,8.6044-24.9143l9.6783-75.6392c.4773-4.0622,.1179-6.812-1.0752-8.2465-1.1959-1.4345-3.8846-2.1504-8.0661-2.1504Z" style="fill: #fff;"/>
    </a>
    <path id="type__CompoundPathItem_" data-name="type &amp;lt;CompoundPathItem&amp;gt;" d="M542.6932,164.9622c-7.1102-4.8974-18.0136-7.3503-32.7113-7.3503-4.065,0-8.9041,.2997-14.5188,.8962-3.9443,.5993-6.5428,1.6149-7.797,3.0494-1.2556,1.4318-1.8827,4.0622-1.8827,7.8858v.7159c0,3.9457,.6867,6.4845,2.0616,7.6194,1.3721,1.1376,4.0331,1.4068,7.976,.8074,5.3774-.7187,10.5759-1.0766,15.594-1.0766,6.6913,0,11.4721,.8074,14.3398,2.4196,2.8677,1.6121,4.3022,4.4534,4.3022,8.5129v6.812h-18.1037c-24.2595,0-36.3864,9.3203-36.3864,27.9637,0,9.6783,3.1646,16.8204,9.4993,21.4181,6.3319,4.6033,16.1323,6.9008,29.3969,6.9008s23.0608-2.3585,29.3955-7.0783c6.3319-4.7198,9.4993-11.9785,9.4993-21.7789v-34.2374c0-10.7521-3.5558-18.5796-10.6647-23.4798Zm-12.6361,56.463c-.3593,4.1843-1.7647,7.0201-4.212,8.5129-2.4515,1.4956-6.3638,2.1809-11.7413,2.0616-5.2595,.1193-9.0234-.4495-11.2918-1.7037-2.2711-1.2542-3.585-3.7903-3.9443-7.6166,0-6.5706,4.2412-9.8586,12.7263-9.8586h18.4631v8.6044Z" style="fill: #fff;"/>
    <path id="type__CompoundPathItem_-2" data-name="type &amp;lt;CompoundPathItem&amp;gt;" d="M611.791,157.6119c-13.506,0-23.9917,3.3491-31.4571,10.039-7.4696,6.6927-11.203,16.432-11.203,29.2179v70.1599c0,4.0622,.6548,6.7509,1.9714,8.0661,1.3138,1.3152,4.0025,1.9728,8.0661,1.9728h3.2256c4.0608,0,6.7495-.6576,8.0661-1.9728,1.3138-1.3152,1.9714-4.0039,1.9714-8.0661v-25.7087c5.0195,6.812,13.2036,10.2166,24.5564,10.2166,12.1894,0,21.5097-3.4629,27.9623-10.3969,6.4526-6.9285,9.6796-16.9064,9.6796-29.9338v-14.337c0-26.1713-14.2815-39.2569-42.8391-39.2569Zm19.3579,54.1322c0,6.5733-1.3749,11.1766-4.1232,13.8015-2.7498,2.6304-7.7679,3.9457-15.0557,3.9457s-12.3684-1.3457-15.236-4.0345c-2.8677-2.6887-4.3022-7.2587-4.3022-13.7127v-14.3398c0-6.4512,1.4345-11.0212,4.3022-13.7099,2.8677-2.6887,7.9454-4.0345,15.236-4.0345,7.4071,0,12.4572,1.2847,15.1459,3.8541,2.6887,2.5722,4.0331,7.2004,4.0331,13.8903v14.3398Z" style="fill: #fff;"/>
    <path id="type__CompoundPathItem_-3" data-name="type &amp;lt;CompoundPathItem&amp;gt;" d="M713.0617,157.6119c-13.506,0-23.9917,3.3491-31.4571,10.039-7.4696,6.6927-11.203,16.432-11.203,29.2179v70.1599c0,4.0622,.6548,6.7509,1.9714,8.0661,1.3138,1.3152,4.0025,1.9728,8.0661,1.9728h3.2256c4.0608,0,6.7495-.6576,8.0661-1.9728,1.3138-1.3152,1.9714-4.0039,1.9714-8.0661v-25.7087c5.0195,6.812,13.2036,10.2166,24.5564,10.2166,12.1894,0,21.5097-3.4629,27.9623-10.3969,6.4526-6.9285,9.6796-16.9064,9.6796-29.9338v-14.337c0-26.1713-14.2815-39.2569-42.8391-39.2569Zm19.3579,54.1322c0,6.5733-1.3749,11.1766-4.1232,13.8015-2.7498,2.6304-7.7679,3.9457-15.0557,3.9457s-12.3684-1.3457-15.236-4.0345c-2.8677-2.6887-4.3022-7.2587-4.3022-13.7127v-14.3398c0-6.4512,1.4345-11.0212,4.3022-13.7099,2.8677-2.6887,7.9454-4.0345,15.236-4.0345,7.4071,0,12.4572,1.2847,15.1459,3.8541,2.6887,2.5722,4.0331,7.2004,4.0331,13.8903v14.3398Z" style="fill: #fff;"/>
    <a xlink:href="91.8733333333333">
      <path id="type__PathItem_-2" data-name="type &amp;lt;PathItem&amp;gt;" d="M803.7565,229.1306h-.8962c-2.8677,0-4.9016-.8657-6.0947-2.5971-1.1959-1.7314-1.7925-4.8697-1.7925-9.4119v-74.2074c0-4.0594-.6576-6.7481-1.9714-8.0634-1.3166-1.3152-4.0053-1.9728-8.0661-1.9728h-3.2256c-4.0636,0-6.7523,.6576-8.0661,1.9728-1.3166,1.3152-1.9714,4.0039-1.9714,8.0634v79.4072c0,9.4396,2.3294,16.6095,6.9895,21.5069,4.6602,4.9029,11.2307,7.3503,19.7172,7.3503,1.4345,0,3.227-.1193,5.3774-.3579,2.389-.48,4.0025-1.3763,4.8391-2.6887,.8352-1.3152,1.2556-3.7653,1.2556-7.3503v-3.4046c0-3.4656-.3898-5.7048-1.1654-6.7232-.7783-1.0128-2.4196-1.5233-4.9293-1.5233Z" style="fill: #fff;"/>
    </a>
    <path id="type__CompoundPathItem_-4" data-name="type &amp;lt;CompoundPathItem&amp;gt;" d="M860.5761,157.6119c-27.8444,0-41.7639,13.4436-41.7639,40.3307v14.3398c0,13.6239,3.7639,23.5713,11.2918,29.845,7.5278,6.2737,19.3579,9.4091,35.4902,9.4091,9.0803,0,16.3709-.7769,21.8677-2.3308,3.9443-.9545,6.5123-2.1504,7.7082-3.585,1.1931-1.4318,1.7925-4.1205,1.7925-8.0661v-1.9701c0-4.1815-.6271-6.8702-1.8827-8.0661-1.2542-1.1931-3.7944-1.3735-7.618-.5383-8.3658,1.6759-15.594,2.5111-21.6887,2.5111-8.2451,0-14.2219-1.1043-17.9234-3.3186-3.7057-2.2087-5.5564-5.6438-5.5564-10.3053v-2.6887h45.5278c4.3008,0,7.1977-.6271,8.6932-1.8813,1.4928-1.2542,2.4778-3.9124,2.9565-7.9774,.2386-3.8236,.3593-6.1516,.3593-6.9895,0-25.8105-13.0856-38.7186-39.2541-38.7186Zm17.0271,36.5682h-35.3098v-2.6887c0-9.0817,5.8533-13.6239,17.5654-13.6239,11.8301,0,17.7444,4.5422,17.7444,13.6239v2.6887Z" style="fill: #fff;"/>
    <a xlink:href="91.8733333333333">
      <path id="type__PathItem_-3" data-name="type &amp;lt;PathItem&amp;gt;" d="M954.8587,157.6119h-1.9714c-12.1894,0-21.4514,2.7803-27.7834,8.3353-6.3347,5.5578-9.4993,13.6544-9.4993,24.2872v49.1127c0,4.065,.6548,6.7537,1.9714,8.0661,1.3138,1.318,4.0025,1.9728,8.0661,1.9728h3.4046c4.0622,0,6.7509-.6548,8.0661-1.9728,1.3138-1.3124,1.9728-4.0012,1.9728-8.0661v-47.3203c0-4.6588,.985-7.8858,2.9565-9.6783,1.9714-1.7925,5.5855-2.6887,10.845-2.6887h1.9714c3.7029,.2414,6.153-.1776,7.3489-1.2542,1.1931-1.0766,1.7925-3.5239,1.7925-7.3503v-1.9701c0-4.3036-.6576-7.2892-1.9714-8.9624-1.3166-1.6732-3.7057-2.5111-7.1699-2.5111Z" style="fill: #fff;"/>
    </a>
  </g>
</svg>